<svg id="Layer_1" data-name="Layer 1" xmlns="http://www.w3.org/2000/svg" viewBox="0 0 40 40"><defs><style>.cls-1{fill:#4c6029;}.cls-2{fill:#fff;}</style></defs><title>ipad icons</title><rect class="cls-1" width="40" height="40" rx="20"/><path class="cls-2" d="M29.37,12.34c-.82,0-1.64.3-1.64,1v7.12L24.34,14c-.8-1.53-1.24-1.64-2.41-1.64-.82,0-1.64.32-1.64,1v13.3c0,.67.82,1,1.64,1s1.63-.34,1.63-1V19.53l4,7.25a1.84,1.84,0,0,0,1.83.88c.81,0,1.63-.34,1.63-1V13.33C31,12.64,30.18,12.34,29.37,12.34Z"/><path class="cls-2" d="M17.88,15.19c.63,0,1-.67,1-1.44s-.29-1.41-1-1.41H10.42c-.71,0-1.42.34-1.42,1v13.3c0,.67.71,1,1.42,1h7.46c.7,0,1-.74,1-1.41s-.36-1.44-1-1.44H12.27V21.25h3.14c.69,0,1-.67,1-1.24s-.36-1.28-1-1.28H12.27V15.19Z"/></svg>