<svg id="Layer_1" data-name="Layer 1" xmlns="http://www.w3.org/2000/svg" viewBox="0 0 40 40"><defs><style>.cls-1{fill:#4c6029;}.cls-2{fill:#fff;}</style></defs><title>ipad icons</title><rect class="cls-1" width="40" height="40" rx="20"/><path class="cls-2" d="M27.89,30.14H27v-1h.93Zm0,1.91H27v-1h.93Zm-1.86,0h-.92v-1H26ZM9.4,22l1.71,11H28.89L30.6,22Z"/><path class="cls-2" d="M8.12,10.5c.1,2.47.53,6.61,1.82,7.93a6.18,6.18,0,0,0,.87.74h5.41l0,0L16,18.82a.91.91,0,0,1-.11-.16l-.3-.53a9.21,9.21,0,0,1-1.15-4.21,1.83,1.83,0,0,1,0-.33s0-.08,0-.11a2,2,0,0,1,0-.24l0-.14.06-.23s0-.11,0-.16,0-.16.08-.24l.06-.16c0-.08.07-.16.1-.25s.05-.11.07-.17l.13-.27s0-.11.08-.16.1-.21.16-.32,0-.09.08-.14v0A21,21,0,0,0,8.79,9.83l5.5,5.66-.66.67Z"/><rect class="cls-2" x="7" y="20.12" width="26" height="0.95"/><path class="cls-2" d="M16.45,11a11.68,11.68,0,0,0-.62,1.16,5.62,5.62,0,0,0-.4,1.13,2.38,2.38,0,0,0-.07.59,8.5,8.5,0,0,0,1,3.76l.25.43.09.14.18.27.11.15a1.84,1.84,0,0,0,.17.22c0,.05.08.11.12.15a.65.65,0,0,0,.11.12h5.16a.65.65,0,0,0,.11-.12s.08-.1.12-.15a1.84,1.84,0,0,0,.17-.22l.11-.15.18-.27.09-.14.24-.43a8.38,8.38,0,0,0,1-3.76A6.27,6.27,0,0,0,23.55,11a28.23,28.23,0,0,0-3.09-4V18.21h-.92V7a28.23,28.23,0,0,0-3.09,4"/><path class="cls-2" d="M24.6,11v0a.61.61,0,0,1,.07.14l.17.31c0,.06,0,.11.08.16s.09.19.13.28a1.11,1.11,0,0,0,.07.16c0,.09.07.17.1.25l.06.17c0,.08.05.15.07.24a.88.88,0,0,1,.05.15l.06.23,0,.14c0,.08,0,.16,0,.24s0,.08,0,.11,0,.22,0,.33a9.34,9.34,0,0,1-1.15,4.21l-.3.53a1.63,1.63,0,0,0-.11.17l-.21.31,0,0h5.4a5.66,5.66,0,0,0,.88-.74c1.29-1.32,1.72-5.46,1.81-7.93l-5.51,5.66-.65-.67,5.5-5.66A21.25,21.25,0,0,0,24.6,11"/></svg>