<svg id="Layer_1" data-name="Layer 1" xmlns="http://www.w3.org/2000/svg" viewBox="0 0 30 30"><defs><style>.cls-1{fill:#4c6029;}.cls-2{fill:#fff;}</style></defs><title>icons and boxes</title><circle class="cls-1" cx="15.06" cy="15" r="15"/><path class="cls-2" d="M22.06,11.46H12.54c-.4,0-.72-.57-.72-1.27s.32-1.26.72-1.26h9.52c.4,0,.72.56.72,1.26s-.32,1.27-.72,1.27Zm0,0"/><path class="cls-2" d="M10.32,10.29A1.55,1.55,0,1,1,8.77,8.7a1.57,1.57,0,0,1,1.55,1.59Zm0,0"/><path class="cls-2" d="M22.06,16.27H12.54c-.4,0-.72-.57-.72-1.27s.32-1.26.72-1.26h9.52c.4,0,.72.56.72,1.26s-.32,1.27-.72,1.27Zm0,0"/><path class="cls-2" d="M10.32,15a1.63,1.63,0,0,1-1.55,1.7,1.71,1.71,0,0,1,0-3.4A1.63,1.63,0,0,1,10.32,15Zm0,0"/><path class="cls-2" d="M22.06,21.07H12.54c-.4,0-.72-.56-.72-1.26s.32-1.27.72-1.27h9.52c.4,0,.72.57.72,1.27s-.32,1.26-.72,1.26Zm0,0"/><path class="cls-2" d="M10.32,19.71a1.55,1.55,0,1,1-1.55-1.59,1.57,1.57,0,0,1,1.55,1.59Zm0,0"/></svg>