<svg id="Layer_1" data-name="Layer 1" xmlns="http://www.w3.org/2000/svg" viewBox="0 0 40 40"><defs><style>.cls-1{fill:#4c6029;}.cls-2{fill:#fff;fill-rule:evenodd;}</style></defs><title>ipad icons</title><rect class="cls-1" width="40" height="40" rx="20"/><g id="Forma_1" data-name="Forma 1"><path class="cls-2" d="M33,32.14V33H7v-.86h6.94V28.7H12.2a3,3,0,0,1-3-3v-.43H10.9a3,3,0,0,1,3,3V24.39H12.2a3,3,0,0,1-3-3V21H10.9a3,3,0,0,1,3,3V20.09H12.2a3,3,0,0,1-3-3v-.44H10.9a3,3,0,0,1,3,3V15.79H12.2a3,3,0,0,1-3-3v-.43H10.9a3,3,0,0,1,3,3V12.52l-.41-.4a3,3,0,0,1,0-4.28L14.37,7l.85.84a3,3,0,0,1,0,4.28l-.42.4v2.84a3,3,0,0,1,3-3h1.73v.43a3,3,0,0,1-3,3H14.8v3.87a3,3,0,0,1,3-3h1.73v.44a3,3,0,0,1-3,3H14.8V24a3,3,0,0,1,3-3h1.73v.44a3,3,0,0,1-3,3H14.8v3.88a3,3,0,0,1,3-3h1.73v.43a3,3,0,0,1-3,3H14.8v3.44H25.2V28.7H23.47a3,3,0,0,1-3-3v-.43h1.73a3,3,0,0,1,3,3V24.39H23.47a3,3,0,0,1-3-3V21h1.73a3,3,0,0,1,3,3V20.09H23.47a3,3,0,0,1-3-3v-.44h1.73a3,3,0,0,1,3,3V16.83l-.4-.41a3,3,0,0,1,0-4.27l.84-.85.83.85a3,3,0,0,1,0,4.27l-.4.41v2.83a3,3,0,0,1,3-3h1.74v.44a3,3,0,0,1-3,3H26.07V24a3,3,0,0,1,3-3h1.74v.44a3,3,0,0,1-3,3H26.07v3.88a3,3,0,0,1,3-3h1.74v.43a3,3,0,0,1-3,3H26.07v3.44Z"/></g></svg>