<svg id="Layer_1" data-name="Layer 1" xmlns="http://www.w3.org/2000/svg" xmlns:xlink="http://www.w3.org/1999/xlink" viewBox="0 0 40 40"><defs><style>.cls-1{fill:none;}.cls-2{fill:#4c6029;}.cls-3{clip-path:url(#clip-path);}.cls-4{fill:#fff;}</style><clipPath id="clip-path"><rect class="cls-1" x="7" y="6.81" width="26" height="26.38"/></clipPath></defs><title>ipad icons</title><rect class="cls-2" width="40" height="40" rx="20"/><g class="cls-3"><path class="cls-4" d="M32.78,20.66a2,2,0,0,1-.8-.44.88.88,0,0,1-.1-.18c-.25-.48-.83-1.6-2-1.6a1.91,1.91,0,0,0-.57.08,3.67,3.67,0,0,0-2,1.55c-.22.3-.4.54-.6.58l-.17,0c-.19,0-.29-.07-.31-.21a11.1,11.1,0,0,1,0-1.86,9.51,9.51,0,0,0-.32-3.43,11.74,11.74,0,0,0-3.17-4l-.77-.75c-.09-.11-.18-.2-.27-.3a3,3,0,0,1-.34-.39,9.8,9.8,0,0,1-.87-1.86l-.06-.2a1.29,1.29,0,0,0-.12-.26c-.12-.29-.27-.56-.5-.56l-.11,0c-.39.14-.47.94-.55,1.64a4.24,4.24,0,0,1-.14.86,1.55,1.55,0,0,1-.39.48,1.21,1.21,0,0,0-.45.63.82.82,0,0,0,.08.66.78.78,0,0,1,.1.52.85.85,0,0,1-.28.5.92.92,0,0,0-.29.58.88.88,0,0,0,.27.65.78.78,0,0,1,.25.52c0,.18-.11.27-.24.38a.72.72,0,0,0-.33.77.88.88,0,0,0,.42.59c.16.12.27.21.26.36a1.82,1.82,0,0,1-.08.36,1.07,1.07,0,0,0,.07,1,5.24,5.24,0,0,0,.76.69,15.64,15.64,0,0,0-3.88-1.2A29.88,29.88,0,0,1,9.13,15a4.85,4.85,0,0,0-1-.34.1.1,0,0,0-.1.06c0,.07,0,.13.18.25l.39.32c.53.43.94.76,1.12.93l-.37-.15a.15.15,0,0,0-.19,0s0,.05,0,.09c0,.46,1.33,2.7,3.18,4.86,1.34,1.55,3.9,4.17,6.08,4.17a2.34,2.34,0,0,0,.38,0A25.89,25.89,0,0,1,12,29.56c-3.37,1.37-4.9,2.08-5,2.63a.34.34,0,0,0,.13.34.63.63,0,0,0,.43.21.78.78,0,0,0,.3-.07.94.94,0,0,1,.3-.06.73.73,0,0,1,.4.13,2.46,2.46,0,0,0,1.34.45,3.61,3.61,0,0,0,2-.77.66.66,0,0,1,.41-.14l.25,0a2.58,2.58,0,0,0,.29,0,1.17,1.17,0,0,0,.72-.28c1.86-1.39,3.88-1.65,6-1.93,2.53-.33,5.14-.66,8-2.78A7.75,7.75,0,0,0,30.74,23l.09-.3c.31-1,.5-1.18.73-1.25l.86-.34.49-.19c.08,0,.09-.07.09-.1s0-.09-.22-.14"/></g></svg>