<svg id="Layer_1" data-name="Layer 1" xmlns="http://www.w3.org/2000/svg" viewBox="0 0 40 40"><defs><style>.cls-1{fill:#4c6029;}.cls-2{fill:#fff;}</style></defs><title>ipad icons</title><rect class="cls-1" width="40" height="40" rx="20"/><path class="cls-2" d="M27.61,12.45H21.82V10.56a1.89,1.89,0,0,0-3.77,0v1.89H12.39a1.89,1.89,0,0,0,0,3.78h.5a23.89,23.89,0,0,0,4.42,8.26c-1.38,1.27-2.74,2.31-4.22,3.47a1.89,1.89,0,0,0,2.36,2.95c1.61-1.26,3-2.32,4.49-3.7,1.5,1.38,3,2.44,4.6,3.7A1.89,1.89,0,1,0,26.9,28c-1.47-1.16-2.95-2.2-4.34-3.47a24,24,0,0,0,4.55-8.26h.5a1.89,1.89,0,0,0,0-3.78Zm-7.67,9.24a19.55,19.55,0,0,1-3.1-5.46h6.32A19.74,19.74,0,0,1,19.94,21.69Z"/></svg>