<svg id="Layer_1" data-name="Layer 1" xmlns="http://www.w3.org/2000/svg" xmlns:xlink="http://www.w3.org/1999/xlink" viewBox="0 0 40 40"><defs><style>.cls-1{fill:none;}.cls-2{fill:#4c6029;}.cls-3{clip-path:url(#clip-path);}.cls-4{fill:#fff;}</style><clipPath id="clip-path"><rect class="cls-1" x="7" y="9.39" width="26" height="21.22"/></clipPath></defs><title>ipad icons</title><rect class="cls-2" width="40" height="40" rx="20"/><g class="cls-3"><path class="cls-4" d="M17.05,18.11v0h0l0,0m15.61-5.88-.24-.11-1.59-.77v0l.19-.15a.12.12,0,0,0,.06-.15,1.36,1.36,0,0,1-.11-.25c-.05-.18-.22-.25-.35-.34s-.29-.14-.44-.21a2.26,2.26,0,0,1-.26-.16c-.19-.13-.37-.27-.56-.39a1.74,1.74,0,0,0-.92-.25l-.3,0h-.27l-.05,0c-.26.06-.53.1-.78.17a1.75,1.75,0,0,0-1,.65,1.33,1.33,0,0,0-.1.24,1.39,1.39,0,0,1-.06.19c-.08.13-.17.26-.26.38s-.52.41-.69.7a3.76,3.76,0,0,1-.94.52,4.2,4.2,0,0,1-1.06.18.47.47,0,0,0-.26.08.36.36,0,0,1-.18.1l-.6.12c-.1,0-.2.08-.3.11l-.83.19-.72.13-.58.13c-.13,0-.26,0-.39.08a4,4,0,0,1-1.24.25,1.13,1.13,0,0,0-.32,0c-.2,0-.39.09-.59.15a3.2,3.2,0,0,1-.69.11l-1.13,0-.14,0a.94.94,0,0,1-.46-.33,2.13,2.13,0,0,0-.29-.31,2.06,2.06,0,0,0-.33-.17,9.14,9.14,0,0,0-1.35-.51,2.79,2.79,0,0,0-.9-.12h-.07l0,0c-.21,0-.41,0-.6,0a2,2,0,0,0-1,.43,2.11,2.11,0,0,0-.4.39A8.67,8.67,0,0,0,9,14.33c-.19.44-.35.9-.5,1.35a4.27,4.27,0,0,0-.12.64c0,.14-.07.29-.1.43A6.37,6.37,0,0,1,8,18a1.3,1.3,0,0,0-.09.39,3.54,3.54,0,0,1-.16.85,1.34,1.34,0,0,1-.67.92.05.05,0,0,0,0,0v.1s0,0,0,.07,0,.12.1.14a.47.47,0,0,0,.51-.11,2.66,2.66,0,0,0,.87-1.3c.2-.73.41-1.47.57-2.21.13-.58.3-1.15.47-1.72,0-.11.07-.21.1-.31a1.93,1.93,0,0,1,.66-1.12.83.83,0,0,1,.49-.19,1.59,1.59,0,0,1,.83.19,2.68,2.68,0,0,1,.75.63.63.63,0,0,0,.45.27l-.06.12a.59.59,0,0,1-.06.14l-.22.24a2.46,2.46,0,0,0-.47.64,2.41,2.41,0,0,0-.23,1,4,4,0,0,1-.08.85,3.54,3.54,0,0,0-.11.44c0,.21,0,.42,0,.62s-.06.47-.09.7-.05.27-.06.41c0,.33,0,.67,0,1a6.52,6.52,0,0,0,.19,1.52,2.17,2.17,0,0,0,.55,1.1s.06.1,0,.12l-.06,0a1.76,1.76,0,0,1-.4.27.35.35,0,0,0-.17.19c-.09.17-.16.34-.25.51s-.29.46-.43.7a2.38,2.38,0,0,1-.76.88,5.78,5.78,0,0,0-.69.5.71.71,0,0,0-.14,1c.07.11.18.18.19.32s0,0,0,0l.15.16a4.06,4.06,0,0,1,.44.49,5.07,5.07,0,0,1,.37.64c.1.2.17.42.46.44s.38,0,.47-.24v0c0-.07-.16,0-.15-.16a3.57,3.57,0,0,1,.47,0,2,2,0,0,1,.49.11.9.9,0,0,0,.43.06c.09,0,.2,0,.24-.11h.09a.18.18,0,0,1,.07.05.41.41,0,0,0,.44,0,.18.18,0,0,0,.08-.09.64.64,0,0,0-.26-.59L13,28.64l-.38-.17-.12-.06-.28-.14c-.19-.1-.42-.1-.61-.2a1.85,1.85,0,0,1-.51-.37.13.13,0,0,1,0-.19,1.37,1.37,0,0,1,.17-.23,3.27,3.27,0,0,1,.35-.3,2,2,0,0,1,.25-.14l.66-.49a7.08,7.08,0,0,0,.9-.74c.16-.18.33-.37.5-.54l1-1c.09-.08.13-.07.21,0l.11.16a1.15,1.15,0,0,0,.62.38s.07,0,.08,0,.07.33.11.49,0,0,0,0a1,1,0,0,0-.09.55c0,.19,0,.38.06.57a1.87,1.87,0,0,0,0,.25c0,.23.07.46.11.69s0,.26,0,.38a1.63,1.63,0,0,1,0,.66A2.6,2.6,0,0,1,16,29a1.79,1.79,0,0,0-.13.41.11.11,0,0,0,0,.11,1.56,1.56,0,0,0,.25.17c.27.15.56.28.83.43a1.82,1.82,0,0,0,.78.24c.14,0,.27,0,.41,0l1.77.05a1.58,1.58,0,0,0,.38-.05c.08,0,.19,0,.21-.13l.06,0a.86.86,0,0,0,.22,0q.39,0,.78-.12a.07.07,0,0,0,0-.07.28.28,0,0,0-.21-.24L21,29.63a4,4,0,0,0-.82-.23,4.66,4.66,0,0,1-.65-.12,4.77,4.77,0,0,0-1.06-.11A.82.82,0,0,1,18,29a.23.23,0,0,1-.1-.14.7.7,0,0,1,.07-.47c.06-.17.15-.33.2-.5.11-.4.2-.8.31-1.2a2.37,2.37,0,0,0,.11-.84c0-.19,0-.38,0-.56a3.5,3.5,0,0,1,.18-.91,2.54,2.54,0,0,1,.2-.52.42.42,0,0,0,0-.33,1.94,1.94,0,0,1-.11-.63,4.07,4.07,0,0,0-.06-.6,1.1,1.1,0,0,0-.29-.58.63.63,0,0,1-.19-.37v0c-.1,0-.09-.11-.11-.17-.09-.26-.19-.51-.27-.78s-.08-.46-.16-.67h0l.49,0a3.17,3.17,0,0,1,.44.12,2.22,2.22,0,0,1,.42.25l0,0,.12.08a5.51,5.51,0,0,0,.67.44,2.13,2.13,0,0,0,.61.17A.83.83,0,0,1,21,21a.27.27,0,0,0,.18.08h.31a4.17,4.17,0,0,0,.49.08,1.55,1.55,0,0,1,.43.07h.13l.57,0a.53.53,0,0,1,.34.11c0,.11,0,.21,0,.3s0,.38,0,.56-.08.29-.11.43l-.12.53c0,.24-.09.48-.13.72a.48.48,0,0,1-.07.26.42.42,0,0,0,0,.13l-.06.43a5,5,0,0,0-.07.56,4.53,4.53,0,0,1-.29,1.36c-.08.24-.22.46-.29.7S22,28,21.9,28.41a1.81,1.81,0,0,0,0,.52A.18.18,0,0,0,22,29a.5.5,0,0,0,.43.21l.92.05c.21,0,.42,0,.63,0a.27.27,0,0,0,.16,0,.48.48,0,0,1,.42,0c.12.06.28,0,.28-.09l-.15-.11.17-.05a1.42,1.42,0,0,0-.08-.18l-.05-.05a1.26,1.26,0,0,0-.56-.32.72.72,0,0,0-.33-.05,1.19,1.19,0,0,1-.37-.06.52.52,0,0,1-.21-.07A.19.19,0,0,1,23.1,28c.07-.17.13-.34.21-.5.18-.37.38-.73.55-1.1s.41-.9.61-1.35a2.91,2.91,0,0,0,.12-.39,2.74,2.74,0,0,1,.09-.39c.16-.47.34-.93.5-1.4.07-.21.12-.42.17-.63h0a.75.75,0,0,1,.09.15,2.54,2.54,0,0,1,0,.29c0,.18,0,.36,0,.55a.55.55,0,0,0,.06.22,1.4,1.4,0,0,1,.22.48c0,.08,0,.16.05.24a2.9,2.9,0,0,1,.12.57,1,1,0,0,0,.14.41.28.28,0,0,1,0,.12l.12.9a.32.32,0,0,0,0,.09c.06.25.15.49.19.73a3.38,3.38,0,0,0,.14.63.74.74,0,0,1,0,.39.38.38,0,0,0,.07.38.58.58,0,0,1,.12.25c.08.33.15.67.23,1a3.9,3.9,0,0,0,.12.46.15.15,0,0,0,.14.11l1,.14a.57.57,0,0,1,.4.21h.1l.31-.06a2.32,2.32,0,0,0,.38-.06.34.34,0,0,1,.22,0c.09,0,.13,0,.11-.09a.61.61,0,0,0-.1-.14s0,0,0,0-.1-.14-.17-.19-.15-.1-.21-.16a2.09,2.09,0,0,0-.9-.49.5.5,0,0,1-.34-.39c0-.48-.07-1-.06-1.44,0-.78,0-1.57.06-2.35l0-.44c0-.31.05-.62.06-.92s0-.43,0-.64,0-.51,0-.77a4.11,4.11,0,0,1,.05-1.05c.11-.41.23-.81.34-1.21a4.91,4.91,0,0,0,.17-.66c0-.31.09-.6.14-.9s.1-.49.14-.74.07-.51.09-.76a4.36,4.36,0,0,0,0-.51,4,4,0,0,1,0-.6.48.48,0,0,1,.42-.39c.16,0,.18,0,.19-.19l-.1,0,.3-.09v0l-.16,0v0H30a.75.75,0,0,1,0-.15S30,15,30,15a2.3,2.3,0,0,1,.28-.06l.06,0c0-.08.09-.07.15-.07a.33.33,0,0,0,.28-.1l-.22,0,.15-.09a1.38,1.38,0,0,1,1.19-.24.8.8,0,0,0,.66-.11s.07,0,.09-.07.27-.33.16-.54a.19.19,0,0,1,0-.15.57.57,0,0,0,0-.51.33.33,0,0,1,0-.14l.1-.16v-.1a.62.62,0,0,0-.34-.37"/></g></svg>