<svg id="Layer_1" data-name="Layer 1" xmlns="http://www.w3.org/2000/svg" xmlns:xlink="http://www.w3.org/1999/xlink" viewBox="0 0 40 40"><defs><style>.cls-1{fill:none;}.cls-2{fill:#4c6029;}.cls-3{clip-path:url(#clip-path);}.cls-4{fill:#fff;}</style><clipPath id="clip-path"><rect class="cls-1" x="7" y="6.17" width="26" height="27.66"/></clipPath></defs><title>ipad icons</title><rect class="cls-2" width="40" height="40" rx="20"/><g class="cls-3"><path class="cls-4" d="M17.57,8.08,15.91,6.45a1,1,0,0,0-1.37,0,1,1,0,0,0,0,1.34l1.9,1.76a3.88,3.88,0,0,1,1.13-1.47"/><path class="cls-4" d="M22.43,8.08a3.88,3.88,0,0,1,1.13,1.47l1.9-1.76a1,1,0,0,0,0-1.34,1,1,0,0,0-1.37,0Z"/><path class="cls-4" d="M19,30.6v2.28a1,1,0,0,0,1.92,0V30.6a5.8,5.8,0,0,1-1.92,0"/><path class="cls-4" d="M20,15.73a6.8,6.8,0,0,1-.17.95,9.88,9.88,0,0,1-1.28,2.88,6.27,6.27,0,0,0,2.9,0,9.88,9.88,0,0,1-1.28-2.88,6.8,6.8,0,0,1-.17-.95"/><path class="cls-4" d="M30.06,15.2a9.27,9.27,0,0,0-5.94-2.89,2.87,2.87,0,0,0-2.06.73c-1.57,1.54-.57,5.14,2.2,7.85a9.23,9.23,0,0,0,5.93,2.88,2.9,2.9,0,0,0,2.07-.72c1.57-1.55.56-5.14-2.2-7.85"/><path class="cls-4" d="M17.94,13a2.87,2.87,0,0,0-2.07-.73,5.3,5.3,0,0,0-1.31.17A10.22,10.22,0,0,0,9.94,15.2C7.18,17.91,6.17,21.5,7.74,23s5.24.56,8-2.15,3.77-6.31,2.2-7.85"/><path class="cls-4" d="M15.9,24.47v.87a4.1,4.1,0,0,0,8.2,0v-.87A6.68,6.68,0,0,1,20,25.74a6.68,6.68,0,0,1-4.1-1.27"/><path class="cls-4" d="M17.71,20.71a13.14,13.14,0,0,1-1,1.11c-.23.23-.47.44-.71.64.41,1.1,2.08,1.95,4,1.95s3.6-.85,4-1.95c-.24-.2-.48-.41-.71-.64a11.76,11.76,0,0,1-1-1.11,7.88,7.88,0,0,1-4.58,0"/><path class="cls-4" d="M17.49,11.23a3.72,3.72,0,0,1,1.41.87A4,4,0,0,1,20,14.43a3.89,3.89,0,0,1,1.1-2.33,3.72,3.72,0,0,1,1.41-.87V11a2.51,2.51,0,0,0-5,0Z"/></g></svg>