<svg id="Layer_1" data-name="Layer 1" xmlns="http://www.w3.org/2000/svg" xmlns:xlink="http://www.w3.org/1999/xlink" viewBox="0 0 40 40"><defs><style>.cls-1{fill:none;}.cls-2{fill:#4c6029;}.cls-3{clip-path:url(#clip-path);}.cls-4{fill:#fff;}</style><clipPath id="clip-path"><rect class="cls-1" x="7" y="7.82" width="26" height="24.36"/></clipPath></defs><title>ipad icons</title><rect class="cls-2" width="40" height="40" rx="20"/><g class="cls-3"><path class="cls-4" d="M33,22.39a.48.48,0,0,0-.59-.33.5.5,0,0,0-.29.24l-1,.27.65-.66a.48.48,0,0,0,.35-.13.47.47,0,0,0,0-.67.49.49,0,0,0-.68,0,.43.43,0,0,0-.13.35l-.7.71.27-1.05a.47.47,0,0,0-.12-.87.48.48,0,0,0-.58.34.47.47,0,0,0,.07.37l-.36,1.39H29.1v0l-1.72-2.74h0a4.36,4.36,0,0,0-.82-2,6.3,6.3,0,0,1-1.21-5.53h0l.17-.43A1.39,1.39,0,0,0,25,10L22,8.06A1.48,1.48,0,0,0,20.63,8a1.4,1.4,0,0,0-.81,1.12l-.38,3.42A1.38,1.38,0,0,0,20.37,14a10,10,0,0,1,1.45.52,3.1,3.1,0,0,1,1,3.78l-3,.11h0c0-.09,0-.2,0-.25l.58-1.63a.49.49,0,0,0,0-.93.52.52,0,0,0-.65.31.49.49,0,0,0,.05.41l-.37,1.06-.2-1a.49.49,0,0,0-.49-.8.49.49,0,0,0-.15.92l.22,1.09-.82-.91a.46.46,0,0,0-.11-.4.52.52,0,0,0-.72-.05.51.51,0,0,0,0,.71.55.55,0,0,0,.4.16l1.07,1.2c-.16,1.63.83,1.66,2.64,2.14a8.55,8.55,0,0,1-4.51,2.31c.16-1.05.32-1.45-.21-2.14a2,2,0,0,0-.39-.31c-.46-.25-.67-.2-1.76-.15l-.72-1.37a.46.46,0,0,0,0-.41.5.5,0,0,0-.68-.22.49.49,0,0,0-.22.67A.52.52,0,0,0,13,19l.52,1-.89-.55a.47.47,0,0,0-.22-.36.51.51,0,0,0-.55.85.5.5,0,0,0,.43,0l.93.59h0L12,20.55a.51.51,0,0,0-.91.28.5.5,0,0,0,.49.52.51.51,0,0,0,.39-.16l1.72.06h0l1.11.29L14.06,23C11.2,22.94,7,21.87,8,15.43a.18.18,0,0,0-.34-.08C6.69,18,5.78,23.46,12.81,26a27.38,27.38,0,0,0,3.67.76l.17.19,1.23,1.33L17.1,29v0l-1.57.68a.5.5,0,0,0-.69.64.51.51,0,0,0,.67.26.5.5,0,0,0,.28-.32l1-.45-.62.83a.51.51,0,0,0-.37.2.49.49,0,0,0,.11.7.52.52,0,0,0,.71-.11.5.5,0,0,0,.08-.41l.66-.89-.13,1.2a.49.49,0,0,0,.23.9.5.5,0,0,0,.56-.44.47.47,0,0,0-.14-.39l.17-1.58.86-.37a1.31,1.31,0,0,0,.4-.29,2.18,2.18,0,0,0,.32-.5,1.78,1.78,0,0,0-.3-1.62c4.43.14,6.79-1.94,7.66-4.27l.9.8c.83.55,1,.36,2.78-.17h0l1.57-.44a.5.5,0,0,0,.38.06.47.47,0,0,0,.33-.58"/></g></svg>