<svg id="Layer_1" data-name="Layer 1" xmlns="http://www.w3.org/2000/svg" viewBox="0 0 40 40"><defs><style>.cls-1{fill:#4c6029;}.cls-2{fill:#fff;}</style></defs><title>time icons</title><rect class="cls-1" width="40" height="40" rx="20"/><path class="cls-2" d="M30.2,22.7c-4.11,4.94-8.38,2.13-9.77,1a25.08,25.08,0,0,1,3.43-3.34c1.93.78,5.38-.71,5.38-.71a9.58,9.58,0,0,1-4.73.1A20.06,20.06,0,0,0,27.63,17a5.36,5.36,0,0,0,3.5-1.58,7.05,7.05,0,0,1-2.86.79,9.82,9.82,0,0,0,1.81-5.36,19.38,19.38,0,0,1-2.48,4.91,7.81,7.81,0,0,1,0-3.1A5.55,5.55,0,0,0,27,16.58a18.74,18.74,0,0,1-3.08,2.51,10.56,10.56,0,0,1-.06-4.93s-1.56,3.61-.58,5.48A19.14,19.14,0,0,0,19.74,23c-4.53-3.39-.64-9.45,2.75-10.87S27.43,11,30.63,5.77C34.13,11,33.56,18.67,30.2,22.7Zm-19.32-.53a12,12,0,0,1,4.47,3.45l0-.11C17.25,18.8,7,19.73,7,19.73a22.71,22.71,0,0,1,2.21,4.56c.91,2.75,4.64,5,6,1.77A14.69,14.69,0,0,0,10.88,22.17Zm9.55,1.51s-.71-.64-.7-.65a8.89,8.89,0,0,0-2.61,5.7,11,11,0,0,0-1.78-3.11,4.53,4.53,0,0,1-.15.44A13.85,13.85,0,0,1,16.87,30a32,32,0,0,0,.34,4.08s.95.56,1.21-.48C17.89,32.73,17.37,26.68,20.43,23.68Z"/></svg>