<?xml version="1.0" encoding="utf-8"?>
<!-- Generator: Adobe Illustrator 23.0.1, SVG Export Plug-In . SVG Version: 6.00 Build 0)  -->
<svg version="1.1" id="Layer_1" xmlns="http://www.w3.org/2000/svg" xmlns:xlink="http://www.w3.org/1999/xlink" x="0px" y="0px"
	 viewBox="0 0 100 100" style="enable-background:new 0 0 100 100;" xml:space="preserve">
<style type="text/css">
	.st0{clip-path:url(#SVGID_2_);fill:#709A52;}
	.st1{clip-path:url(#SVGID_2_);fill:#64432E;}
	.st2{clip-path:url(#SVGID_2_);fill:#643F21;}
	.st3{clip-path:url(#SVGID_2_);fill:#816834;}
	.st4{clip-path:url(#SVGID_2_);fill:#59595B;}
	.st5{fill:#59595B;}
	.st6{clip-path:url(#SVGID_4_);fill:#59595B;}
	.st7{clip-path:url(#SVGID_6_);fill:#59595B;}
	.st8{clip-path:url(#SVGID_8_);fill:#59595B;}
	.st9{clip-path:url(#SVGID_10_);fill:#59595B;}
</style>
<g>
	<defs>
		<rect id="SVGID_1_" x="-8.03" y="18" width="114.41" height="64.51"/>
	</defs>
	<clipPath id="SVGID_2_">
		<use xlink:href="#SVGID_1_"  style="overflow:visible;"/>
	</clipPath>
	<path class="st0" d="M54.58,24.79L54.58,24.79L54.58,24.79C54.58,24.79,54.58,24.79,54.58,24.79 M51.56,22.62
		C51.56,22.62,51.56,22.62,51.56,22.62C51.56,22.62,51.56,22.62,51.56,22.62L51.56,22.62z M49.9,22.43L49.9,22.43
		c-0.02-0.5,0.15-1.37,0.39-1.38C50.63,21.04,50.45,22.03,49.9,22.43 M49.1,28.44c-0.03,0.06-0.03,0.21,0.04,0.23
		C49.13,31.98,47.95,28.35,49.1,28.44 M48.43,21.81c-0.02,0-0.07-0.01-0.08-0.01C46.49,18.46,50.09,22.13,48.43,21.81 M48.17,23.77
		C48.16,23.77,48.16,23.77,48.17,23.77C48.16,23.76,48.16,23.76,48.17,23.77C48.17,23.76,48.17,23.77,48.17,23.77 M47.77,21.73
		L47.77,21.73 M45.55,27.48c0.04-0.34,0.09-0.75,0.78-1c0.03-0.01,0.04-0.04,0.04-0.07C46.61,26.43,46.65,26.9,45.55,27.48
		 M42.71,25.47L42.71,25.47C42.71,25.47,42.71,25.47,42.71,25.47C42.71,25.47,42.71,25.47,42.71,25.47 M45.69,20.37
		C45.69,20.37,45.69,20.37,45.69,20.37C45.69,20.37,45.69,20.37,45.69,20.37C45.69,20.37,45.69,20.37,45.69,20.37 M52.87,21
		L52.87,21L52.87,21L52.87,21z M53.88,19.38c-0.01,0.25-0.2,0.41-0.52,0.42c-0.01-0.01-0.01-0.03-0.02-0.04
		C53.49,19.53,53.48,19.17,53.88,19.38 M53.39,24.53c0-0.03,0-0.06-0.01-0.09c0.01-0.01,0.02-0.02,0.02-0.03
		c0.12-0.04,0.23-0.1,0.33-0.17c1.34-0.87,0.97-0.33,1.95-0.35c0.23,0.03,0.45-0.01,0.67-0.11c0.87-0.4,0.64-0.45,1.6-0.15
		c0.16,0.05,0.32,0.07,0.48,0c0.24-0.1,0.25-0.17,0.05-0.33c-1.41-1.13-5.17-0.7-2.35-1.83c0.22-0.09,0.45-0.16,0.63-0.33
		c0.04-0.02,0.01-0.04-0.01-0.06c-1.24-1.55-4.96,1.52-5.2,1.46c-0.91-0.91,0.75-1.26,1.18-1.38c0.19-0.05,0.27-0.17,0.26-0.37
		c-0.02-0.24,0.01-0.49,0.13-0.71l-0.01-0.01v0c0,0,0,0.01,0.01,0.01c0.57,0.03,1.06,0.11,1.49-0.17c0.38-0.24,0.29-0.65,0.05-0.87
		c-1.15-1.07-1.87,0.2-2.48,0.13c-2.44-2.49-2.97-0.14-2.97-0.14c-0.09-1.41-2.2-1.15-3.6-0.56c-0.11,0.05-0.08,0.09-0.02,0.15
		c0.87,0.93,1.2,1.42,1.65,2.17c1.88,4-1.25-1.62-4.11-1.63c-0.43,0-0.5,0.1-0.32,0.5c0.33,0.76,3.23,2.01,3.09,2.49
		c-0.02,0.31,2.18,1.62,1.74,1.75c-0.87-0.43-3.79-2.42-6.56-2.44c-0.09,0-0.1,0.03-0.1,0.11c0.02,0.64,0.56,0.89,1.13,0.84
		c0.14-0.01,0.24,0.02,0.33,0.13c0.08,0.14,0.3,0.61,0.44,0.64c0.64,0.15,3.35,0.5,3.21,1.39c-2.72,0.13-5.74-0.67-6.91,1.29
		c-0.16,0.28-0.11,0.41,0.19,0.55l0.01,0.01l0.01,0c0.24,0.16,0.68-0.24,1.27-0.68c0.2-0.1,0.4-0.06,0.57,0.07
		c0.53,0.4,1.32-0.35,1.46-0.28c0.47,0.59-1.05,1.35-1.29,1.56c-0.38,0.25-0.66,0.77-0.78,1.25c-0.12,0.45,0.03,0.91,0.36,1.14
		c0.21,0.15,0.3,0.11,0.36-0.14c0.31-1.43,2.71-2.79,3.53-3.09c0.06,0,0.11,0.01,0.07,0.09c-1.59,1.33-2.6,2.25-2.82,3.94
		c0.61-0.32,1.62-1.96,2.23-1.46c0.09,0.72-0.85,1.55-0.62,2.41c0.05,0.18,0.13,0.22,0.3,0.13c0.59-0.32,0.61-0.7,1.3-1.39
		c0.06-0.04,0.11-0.08,0.17-0.13c0.04-0.02,0.08-0.03,0.13-0.05c0.28,0.41-0.1,1.61-0.12,1.92c-0.03,0.32-0.06,0.65,0.16,0.93
		c0.07,0.09,0.15,0.21,0.25,0.19c0.08-0.02,0.05-0.5,0.04-0.59c-0.03-0.28,1.61-3.12,1.65-3.12c0.03,0.47-0.04,0.69-0.15,1.27
		c-0.07,0.18-0.46,1.9-0.3,2.01c0.24,0.16,0.58,0.59,0.51,1.04c-0.06,0.36,0.92,0.29,1.27,0.19c0,0.01,0.01,0.01,0.01,0.02
		c0.28-0.4,0.71-0.5,1.18-0.52c0-0.04-0.01-0.09-0.01-0.13c0.59-0.47,0.62,0.33,1.24,0.61c0.55-1.14-1.24-5.42,1.4-2.91
		c-0.15,0.83,0.23,1.32,1,1.65c0.31-1.5-1.14-2.84-1.42-4.16c0-0.06,0.02-0.11,0.1-0.07c0.06,0.03,0.11,0.07,0.17,0.11
		c1.8,1.45,1.87,1.43,1.86,1.41c0,0,0,0,0,0c0,0,0,0,0,0c0.07,0.31,0.61,1.39,1.53,1.16c0.1-0.03,0.13-0.07,0.12-0.18
		c-0.12-1.3-3.21-3.38-3-3.95c1.26-0.1,1.77,1.66,2.89,1.46c1.11-0.2,1.44,0.4,2.16,0.6c0.1,0.03,0.15,0,0.15-0.11
		c-0.01-0.85-1.37-1.36-1.8-2.07c-0.08-0.31,0.09-0.4,0.26-0.55c0.09-0.09,1.35,0.85,2.07,0.68C61.22,26.07,53.63,24.6,53.39,24.53"
		/>
	<path class="st1" d="M48.77,33.39L48.77,33.39L48.77,33.39C48.77,33.39,48.77,33.38,48.77,33.39
		C48.77,33.38,48.77,33.39,48.77,33.39 M47.06,46.74C47.06,46.74,47.06,46.74,47.06,46.74C47.06,46.74,47.06,46.74,47.06,46.74
		C47.06,46.74,47.06,46.74,47.06,46.74 M48.3,33.62c0.41,0.64-0.01,1.47,0.17,3.16c-0.01,0.24-0.39,0.41-0.48,0.64
		c-0.14,0.24-0.15,0.49-0.1,0.75c0.16,0.79,0.46,0.63,0.27,1.3c-0.68,1.5,0.55,4.74-1.12,5.53c-0.85,0.27-1.68-0.18-2.62,0.07
		c-0.09,0.02-0.16,0.04-0.13,0.16c0.21,0.81,0.48,1.35,1.22,1.8c0.15,0.09,0.26,0.15,0.33-0.08c0.2-0.71,1.09-0.01,1.33-0.04
		c0.16-0.02,0.15-0.24,0.27-0.33c0.3-0.05,1.82,2.02,1.97-0.03c0.57-0.1,1.28,1.36,1.82,0.42c1.34-2.34,0.77,1.34,2.84-1.83
		c0.1-0.15,0.06-0.21-0.11-0.25c-0.38-0.07-0.76-0.05-1.14-0.02c-5.42,0.4-1.9-2.25-2.69-4.03C49.91,40.58,49.86,40.31,50,40
		c0.26-0.59-0.19-0.48-0.17-0.87c0.43-2.28-0.36-4.74-0.36-4.74c0.04-0.43,0.05-0.86,0.01-1.29C49.01,33.12,48.58,33.22,48.3,33.62"
		/>
	<polyline class="st2" points="49.21,28.71 49.21,28.71 49.21,28.71 	"/>
	<path class="st3" d="M58.84,47.08c0.16-0.12,0.81-0.42,1.37-0.68c0.62-0.28,1.3-0.42,1.48-0.51c0.1-0.05,0.19,0.09,0.05,0.16
		c-0.18,0.09-0.88,0.21-1.48,0.49c-0.53,0.25-1.18,0.58-1.36,0.67C58.8,47.25,58.72,47.17,58.84,47.08 M56.42,48.63
		c0,0-0.26,0.04-0.08-0.12c0.22-0.19,1.54-0.99,1.62-0.86C58.06,47.8,56.42,48.63,56.42,48.63 M54.15,50.39
		c-0.24,0.17-0.89,0.67-1.45,1.07c-0.88,0.63-1.32,1.1-1.51,0.98c-0.19-0.11,0.87-0.89,1.39-1.27c0.56-0.41,1.16-0.87,1.4-1.06
		C54.2,49.94,54.47,50.16,54.15,50.39 M52.03,56.7c-0.12,0.19-0.62-0.5-1.36-1.17c-1.4-1.26-3.51-3.14-3.3-3.32
		c0.13-0.11,1.79,1.51,2.91,2.56C51.48,55.91,52.2,56.43,52.03,56.7 M47.06,56.36l-0.8-0.9l1.33-1.26l-0.9,1.33l1.38-0.82
		l-1.01,1.28l1.42-0.88L47.06,56.36z M41.54,48.58c-0.21-0.13-1.53-0.99-1.88-1.21c-0.21-0.13-0.12-0.28,0.03-0.16
		c0.35,0.26,1.62,1.03,1.91,1.23C41.71,48.52,41.69,48.68,41.54,48.58 M57.95,58.83c1.08-0.37,1.25-1.34,1.7-0.89
		c0.4,0.41-0.5,1.47-1.67,1.6c-1.11,0.12-2.4-0.72-2.4-0.72S57,59.16,57.95,58.83 M40.39,59.09c-1.19-0.16-2.37-0.94-1.94-1.4
		c0.6-0.65,1.07,0.57,2.08,0.82c1.27,0.31,2.11,0.04,2.07,0.15C42.55,58.76,41.67,59.27,40.39,59.09 M69.36,44.9
		c0,0-4.79-2.05-10.16,0.48c-3.47,1.64-7.18,4.5-9.99,6.92c-2.81-2.42-6.53-5.28-10-6.92c-5.37-2.53-10.16-0.48-10.16-0.48
		s4.72-0.34,10.53,2.93c2.71,1.53,5.66,3.84,8.03,5.88c-1.84,1.67-3.03,2.88-3.03,2.88l-0.44-0.18c0.03-0.08,0.05-0.17,0.05-0.26
		c0-0.4-0.32-0.72-0.72-0.72c-0.4,0-0.72,0.32-0.72,0.72c0,0.4,0.32,0.72,0.72,0.72c0.03,0,0.07-0.01,0.1-0.01l0.06,0.26
		c0,0-1.1,1.14-2.48,1.05c-1.12-0.07-1.85-1.27-2.66-1.14c-1.35,0.23-1.57,2.32,0.96,3.45c2.07,0.92,6-1.78,6-1.78l0.16,0.12
		c-0.03,0.07-0.04,0.15-0.04,0.24c0,0.4,0.32,0.72,0.72,0.72c0.4,0,0.72-0.32,0.72-0.72c0-0.4-0.32-0.72-0.72-0.72
		c-0.07,0-0.13,0.01-0.2,0.03l-0.04-0.3c0,0,1.26-1.26,3.15-2.95c1.89,1.7,3.15,2.95,3.15,2.95l-0.04,0.31
		c-0.06-0.02-0.13-0.03-0.2-0.03c-0.4,0-0.72,0.32-0.72,0.72c0,0.4,0.32,0.72,0.72,0.72c0.4,0,0.72-0.32,0.72-0.72
		c0-0.08-0.02-0.16-0.04-0.24l0.16-0.12c0,0,3.94,2.7,6,1.78c2.53-1.13,2.31-3.22,0.96-3.45c-0.81-0.14-1.54,1.06-2.66,1.14
		c-1.38,0.09-2.48-1.05-2.48-1.05l0.06-0.26c0.03,0,0.07,0.01,0.1,0.01c0.4,0,0.72-0.32,0.72-0.72c0-0.4-0.32-0.72-0.72-0.72
		c-0.4,0-0.72,0.32-0.72,0.72c0,0.09,0.02,0.18,0.05,0.26l-0.44,0.18c0,0-1.18-1.21-3.03-2.88c2.38-2.04,5.32-4.35,8.03-5.88
		C64.65,44.55,69.36,44.9,69.36,44.9"/>
	<path class="st4" d="M4.56,70.18c0,0.23-0.19,0.42-0.42,0.42c-0.23,0-0.42-0.19-0.42-0.42c0-0.23,0.19-0.42,0.42-0.42
		C4.37,69.76,4.56,69.95,4.56,70.18 M3.65,72.51c0-0.2-0.16-0.35-0.35-0.35c-0.2,0-0.35,0.16-0.35,0.35c0,0.2,0.16,0.35,0.35,0.35
		C3.49,72.86,3.65,72.7,3.65,72.51 M3.49,70.18c0,0.23-0.18,0.42-0.42,0.42c-0.23,0-0.41-0.19-0.41-0.42c0-0.23,0.18-0.42,0.41-0.42
		C3.31,69.76,3.49,69.95,3.49,70.18 M3.92,71.13c0,0,1.77,1.68,1.46,2.25c-0.06,0.11-0.42,0.12-0.8,0.11H2.99
		c-0.28,0-0.93-0.08-0.93-0.82C2.14,71.64,3.92,71.13,3.92,71.13"/>
	<path class="st4" d="M7.09,71.71l0.82-0.34v2.17c-0.01,0.65-0.39,1.13-0.96,1.13H5.67L6.1,73.9h0.77c0.29,0,0.31-0.36,0.31-0.37
		C7.18,73.42,7.1,71.71,7.09,71.71"/>
	<path class="st4" d="M10.14,72.51c0-0.2-0.16-0.35-0.35-0.35c-0.2,0-0.35,0.16-0.35,0.35c0,0.2,0.16,0.35,0.35,0.35
		C9.98,72.86,10.14,72.7,10.14,72.51 M10.25,71.2c0,0,1.62,1.52,1.62,2.18c0,0.02-0.01,0.05-0.01,0.07
		c-0.14,0.72-0.6,1.21-1.24,1.21H8.25l0.42-0.78h2.13c0.2,0,0.28-0.24,0.28-0.35c0-0.02,0-0.05-0.01-0.05H9.47
		c-0.28,0-0.93-0.08-0.93-0.82C8.63,71.64,10.25,71.2,10.25,71.2"/>
	<path class="st4" d="M13.11,70.56c0,0.23-0.18,0.42-0.42,0.42c-0.23,0-0.41-0.19-0.41-0.42c0-0.23,0.18-0.42,0.41-0.42
		C12.93,70.14,13.11,70.33,13.11,70.56 M14.17,72.72v0.77v0.01H11.9v-0.78h1.13l-0.05-0.91l0.8-0.46v1.37H14.17z"/>
	<path class="st4" d="M16.08,72.52c0-0.2-0.16-0.36-0.35-0.36c-0.2,0-0.35,0.16-0.35,0.36c0,0.2,0.16,0.36,0.35,0.36
		C15.92,72.88,16.08,72.72,16.08,72.52 M17.99,73.49h-1c-0.29,0.13-0.72,0.17-1.15,0.17c-0.45,0-0.91-0.06-1.17-0.17h-0.78v-0.78
		h0.58c0.08-0.36,0.36-1.4,1.43-1.43c0.63,0,1.23,0.7,1.4,1.41h0.69V73.49z"/>
</g>
<polygon class="st5" points="19.02,68.89 19.02,73.49 17.22,73.49 17.22,72.72 18.26,72.72 18.22,69.24 "/>
<g>
	<defs>
		<rect id="SVGID_3_" x="-8.03" y="18" width="114.41" height="64.51"/>
	</defs>
	<clipPath id="SVGID_4_">
		<use xlink:href="#SVGID_3_"  style="overflow:visible;"/>
	</clipPath>
	<path class="st6" d="M19.73,72.39l-0.06-3.16l0.81-0.34v3.51c0,0.45,0.23,0.65,0.36,0.76c-0.06,0.07-0.28,0.37-0.42,0.5
		C19.72,73.53,19.73,72.68,19.73,72.39"/>
	<path class="st6" d="M23.87,69.96c0-0.23,0.19-0.42,0.42-0.42c0.23,0,0.42,0.18,0.42,0.42c0,0.23-0.19,0.41-0.42,0.41
		C24.06,70.37,23.87,70.19,23.87,69.96 M24.32,72.42c0-0.2-0.17-0.38-0.38-0.38c-0.2,0-0.37,0.17-0.37,0.38
		c0,0.2,0.17,0.37,0.37,0.37C24.15,72.79,24.32,72.63,24.32,72.42 M22.82,69.96c0-0.23,0.19-0.42,0.42-0.42
		c0.23,0,0.42,0.18,0.42,0.42c0,0.23-0.19,0.41-0.42,0.41C23.01,70.37,22.82,70.19,22.82,69.96 M25.54,72.72v0.78h-2.76
		c-0.3-0.1-0.54-0.48-0.54-0.94c0-0.76,0.51-1.18,1.35-1.18c0.19,0,0.42,0.03,0.66,0.08L24.24,71l0.79-0.46v2.17H25.54z"/>
	<path class="st6" d="M26.5,70.56c0,0.23-0.18,0.42-0.42,0.42c-0.23,0-0.41-0.19-0.41-0.42c0-0.23,0.18-0.42,0.41-0.42
		C26.32,70.14,26.5,70.33,26.5,70.56 M27.56,72.72v0.77v0.01h-2.26v-0.78h1.13l-0.05-0.91l0.8-0.46v1.37H27.56z"/>
	<path class="st6" d="M29.52,74.38c0,0.23-0.19,0.42-0.42,0.42c-0.23,0-0.42-0.19-0.42-0.42c0-0.23,0.18-0.42,0.42-0.42
		C29.33,73.97,29.52,74.16,29.52,74.38 M28.46,74.38c0,0.23-0.18,0.42-0.42,0.42c-0.23,0-0.41-0.19-0.41-0.42
		c0-0.23,0.18-0.42,0.41-0.42C28.28,73.97,28.46,74.16,28.46,74.38 M29.78,73.49h-2.54v-0.78h1.8l-0.05-0.91l0.8-0.46V73.49z"/>
	<path class="st6" d="M35.21,72.72h0.51v0.78h-5.5l0.43-0.78h3.71c-0.04-0.08-0.13-0.48-0.49-0.48h-0.81h-2.15l0.42-0.77h2.61
		c0.37,0,0.76,0.17,1,0.69C35.03,72.37,35.12,72.55,35.21,72.72"/>
	<path class="st6" d="M37.49,72.52c0-0.2-0.16-0.36-0.35-0.36s-0.35,0.16-0.35,0.36c0,0.2,0.16,0.36,0.35,0.36
		S37.49,72.72,37.49,72.52 M39.4,73.49h-1c-0.29,0.13-0.72,0.17-1.15,0.17c-0.45,0-0.91-0.06-1.17-0.17H35.3v-0.78h0.58
		c0.08-0.36,0.36-1.4,1.43-1.43c0.63,0,1.23,0.7,1.4,1.41h0.69V73.49z"/>
</g>
<polygon class="st5" points="40.43,68.89 40.43,73.49 38.63,73.49 38.63,72.72 39.67,72.72 39.63,69.24 "/>
<g>
	<defs>
		<rect id="SVGID_5_" x="-8.03" y="18" width="114.41" height="64.51"/>
	</defs>
	<clipPath id="SVGID_6_">
		<use xlink:href="#SVGID_5_"  style="overflow:visible;"/>
	</clipPath>
	<path class="st7" d="M41.14,72.39l-0.06-3.16l0.81-0.34v3.51c0,0.45,0.23,0.65,0.36,0.76c-0.06,0.07-0.28,0.37-0.42,0.5
		C41.12,73.53,41.14,72.68,41.14,72.39"/>
	<path class="st7" d="M45.28,69.96c0-0.23,0.19-0.42,0.42-0.42s0.42,0.18,0.42,0.42c0,0.23-0.19,0.41-0.42,0.41
		S45.28,70.19,45.28,69.96 M45.73,72.42c0-0.2-0.17-0.38-0.38-0.38c-0.2,0-0.37,0.17-0.37,0.38c0,0.2,0.17,0.37,0.37,0.37
		C45.56,72.79,45.73,72.63,45.73,72.42 M44.23,69.96c0-0.23,0.19-0.42,0.42-0.42c0.23,0,0.42,0.18,0.42,0.42
		c0,0.23-0.19,0.41-0.42,0.41C44.42,70.37,44.23,70.19,44.23,69.96 M46.95,72.72v0.78H44.2c-0.3-0.1-0.54-0.48-0.54-0.94
		c0-0.76,0.51-1.18,1.35-1.18c0.19,0,0.42,0.03,0.66,0.08L45.65,71l0.79-0.46v2.17H46.95z"/>
	<path class="st7" d="M49.33,69.24c0,0.23-0.19,0.41-0.42,0.41c-0.23,0-0.42-0.18-0.42-0.41c0-0.23,0.19-0.42,0.42-0.42
		C49.14,68.83,49.33,69.01,49.33,69.24 M48.68,71.28c0-0.2-0.16-0.36-0.36-0.36c-0.2,0-0.35,0.17-0.35,0.36s0.16,0.35,0.35,0.35
		C48.52,71.64,48.68,71.48,48.68,71.28 M48.27,69.24c0,0.23-0.18,0.41-0.42,0.41c-0.23,0-0.41-0.18-0.41-0.41
		c0-0.23,0.18-0.42,0.41-0.42C48.08,68.83,48.27,69.01,48.27,69.24 M51.15,72.72v0.78h-4.97v-0.78h3.25
		c0.11-0.01,0.21-0.15,0.21-0.26c0-0.07-0.05-0.13-0.14-0.13H48c-0.21,0-0.82-0.14-0.82-0.75c0-0.56,0.46-1.09,0.94-1.33
		c0.31-0.16,0.84-0.18,0.84-0.18s1.46,1.14,1.46,2.38c0,0.08-0.02,0.18-0.05,0.26H51.15z"/>
</g>
<path class="st5" d="M56.15,72.72l-0.35-0.48h-3.64v0.48H56.15z M57.82,73.49h-7.31v-0.78h0.85v-3.47l0.8-0.35v2.57h4.08l0.88,1.25
	h0.71V73.49z"/>
<g>
	<defs>
		<rect id="SVGID_7_" x="-8.03" y="18" width="114.41" height="64.51"/>
	</defs>
	<clipPath id="SVGID_8_">
		<use xlink:href="#SVGID_7_"  style="overflow:visible;"/>
	</clipPath>
	<path class="st8" d="M58.52,70.56c0,0.23-0.18,0.42-0.42,0.42c-0.23,0-0.41-0.19-0.41-0.42c0-0.23,0.18-0.42,0.41-0.42
		C58.34,70.14,58.52,70.33,58.52,70.56 M59.57,72.72v0.77v0.01h-2.26v-0.78h1.13l-0.05-0.91l0.8-0.46v1.37H59.57z"/>
	<path class="st8" d="M61.53,72.52c0-0.2-0.16-0.35-0.35-0.35c-0.2,0-0.36,0.16-0.36,0.35c0,0.2,0.17,0.36,0.36,0.36
		C61.37,72.88,61.53,72.72,61.53,72.52 M62.79,73.06c0,0.43-0.73,0.6-1.51,0.6c-0.45,0-0.9-0.06-1.16-0.17h-0.85v-0.78h0.65
		c0.08-0.36,0.37-1.4,1.44-1.43c0.54,0,1.06,0.52,1.31,1.12C62.73,72.6,62.79,72.87,62.79,73.06"/>
	<path class="st8" d="M67.21,72.72v0.78h-0.73v0.04c-0.01,0.65-0.39,1.13-0.96,1.13h-1.28l0.42-0.77h0.77
		c0.29,0,0.31-0.36,0.31-0.37c0-0.13-0.07-1.82-0.08-1.82l0.81-0.35v1.36H67.21z"/>
	<path class="st8" d="M68.78,74.38c0,0.23-0.19,0.42-0.42,0.42c-0.23,0-0.42-0.19-0.42-0.42c0-0.23,0.18-0.42,0.42-0.42
		C68.59,73.97,68.78,74.16,68.78,74.38 M67.72,74.38c0,0.23-0.18,0.42-0.42,0.42c-0.23,0-0.41-0.19-0.41-0.42
		c0-0.23,0.18-0.42,0.41-0.42C67.54,73.97,67.72,74.16,67.72,74.38 M69.04,73.49H66.5v-0.78h1.8l-0.05-0.91l0.8-0.46V73.49z"/>
	<path class="st8" d="M71.38,72.51c0-0.2-0.16-0.35-0.35-0.35c-0.2,0-0.36,0.16-0.36,0.35c0,0.2,0.16,0.35,0.36,0.35
		C71.22,72.86,71.38,72.7,71.38,72.51 M71.49,71.2c0,0,1.62,1.52,1.62,2.18c0,0.02-0.01,0.05-0.01,0.07
		c-0.14,0.72-0.6,1.21-1.24,1.21h-2.37l0.42-0.78h2.13c0.2,0,0.28-0.24,0.28-0.35c0-0.02,0-0.05-0.01-0.05h-1.59
		c-0.28,0-0.93-0.08-0.93-0.82C69.87,71.64,71.49,71.2,71.49,71.2"/>
</g>
<path class="st5" d="M78.72,72.72l-0.35-0.48h-3.64v0.48H78.72z M80.39,73.49h-7.31v-0.78h0.85v-3.47l0.8-0.35v2.57h4.08l0.88,1.25
	h0.71V73.49z"/>
<g>
	<defs>
		<rect id="SVGID_9_" x="-8.03" y="18" width="114.41" height="64.51"/>
	</defs>
	<clipPath id="SVGID_10_">
		<use xlink:href="#SVGID_9_"  style="overflow:visible;"/>
	</clipPath>
	<path class="st9" d="M82.3,70.56c0,0.23-0.19,0.42-0.42,0.42c-0.23,0-0.42-0.19-0.42-0.42s0.19-0.42,0.42-0.42
		C82.11,70.14,82.3,70.33,82.3,70.56 M81.23,70.56c0,0.23-0.18,0.42-0.41,0.42c-0.23,0-0.41-0.19-0.41-0.42s0.18-0.42,0.41-0.42
		C81.05,70.14,81.23,70.33,81.23,70.56 M82.3,73.49h-2.54v-0.78h1.8L81.5,71.8l0.8-0.46V73.49z"/>
	<path class="st9" d="M85.57,69.96c0-0.23,0.19-0.42,0.41-0.42c0.23,0,0.42,0.18,0.42,0.42c0,0.23-0.19,0.41-0.42,0.41
		C85.75,70.37,85.57,70.19,85.57,69.96 M86.01,72.42c0-0.2-0.17-0.38-0.38-0.38c-0.2,0-0.37,0.17-0.37,0.38
		c0,0.2,0.17,0.37,0.37,0.37C85.84,72.79,86.01,72.63,86.01,72.42 M84.51,69.96c0-0.23,0.19-0.42,0.42-0.42
		c0.23,0,0.42,0.18,0.42,0.42c0,0.23-0.19,0.41-0.42,0.41C84.7,70.37,84.51,70.19,84.51,69.96 M87.23,72.72v0.78h-2.76
		c-0.3-0.1-0.54-0.48-0.54-0.94c0-0.76,0.51-1.18,1.35-1.18c0.19,0,0.42,0.03,0.66,0.08L85.93,71l0.79-0.46v2.17H87.23z"/>
	<path class="st9" d="M89,71.36h-1.53v-0.39h0.38c-0.02-0.05-0.05-0.17-0.05-0.24c0-0.41,0.37-0.62,0.59-0.62
		c0.19,0,0.35,0.05,0.41,0.09l-0.14,0.17c-0.01,0-0.02-0.01-0.04-0.01c-0.17,0-0.3,0.14-0.3,0.3c0,0.16,0.11,0.31,0.3,0.31h0.38
		L89,71.36z M89.09,72.72h0.6v0.78h-2.78v-0.78h1.46l-0.05-0.66l0.77-0.45V72.72z"/>
	<path class="st9" d="M91.47,74.38c0,0.23-0.19,0.42-0.42,0.42s-0.42-0.19-0.42-0.42s0.19-0.42,0.42-0.42S91.47,74.16,91.47,74.38
		 M90.42,74.38c0,0.23-0.19,0.42-0.42,0.42c-0.23,0-0.42-0.19-0.42-0.42s0.19-0.42,0.42-0.42C90.23,73.97,90.42,74.16,90.42,74.38
		 M92.11,72.72v0.77v0.01h-2.92v-0.78h1.79l-0.05-0.91l0.8-0.46v1.37H92.11z"/>
	<path class="st9" d="M94.84,72.42c0-0.18-0.14-0.32-0.32-0.32s-0.32,0.14-0.32,0.32c0,0.18,0.14,0.33,0.32,0.33
		S94.84,72.6,94.84,72.42 M93.75,72.05c0-0.17-0.15-0.32-0.33-0.32c-0.17,0-0.32,0.15-0.32,0.32c0,0.18,0.15,0.33,0.32,0.33
		C93.6,72.38,93.75,72.23,93.75,72.05 M96.22,72.88c0.22,0.49-0.19,0.61-0.19,0.61h-4.48v-0.78h0.96c-0.2-0.08-0.05-0.6,0-0.73
		c0.14-0.32,0.42-0.6,0.78-1.05l-0.14-0.17l0.61-0.57C93.76,70.21,96.19,72.81,96.22,72.88"/>
</g>
<g>
	<path class="st5" d="M2.63,79.49L2.3,80.47H1.89l1.06-3.13h0.49l1.07,3.13H4.07l-0.33-0.98H2.63z M3.65,79.17l-0.31-0.9
		c-0.07-0.21-0.12-0.39-0.16-0.57H3.18c-0.05,0.19-0.1,0.38-0.16,0.57l-0.31,0.9H3.65z"/>
	<path class="st5" d="M4.96,77.34h0.4v2.79H6.7v0.34H4.96V77.34z"/>
	<path class="st5" d="M9.79,79.1c-0.02-0.44-0.05-0.96-0.05-1.35H9.73c-0.11,0.37-0.24,0.76-0.39,1.19l-0.55,1.52H8.47l-0.51-1.49
		c-0.15-0.44-0.27-0.84-0.36-1.21H7.6c-0.01,0.39-0.03,0.91-0.06,1.38l-0.08,1.34H7.07l0.22-3.13H7.8l0.53,1.51
		c0.13,0.38,0.24,0.73,0.32,1.05h0.01c0.08-0.32,0.19-0.66,0.33-1.05l0.56-1.51h0.51l0.19,3.13H9.87L9.79,79.1z"/>
	<path class="st5" d="M11.34,79.49l-0.32,0.98H10.6l1.06-3.13h0.49l1.07,3.13h-0.43l-0.33-0.98H11.34z M12.37,79.17l-0.31-0.9
		c-0.07-0.21-0.12-0.39-0.16-0.57h-0.01c-0.05,0.19-0.1,0.38-0.16,0.57l-0.31,0.9H12.37z"/>
	<path class="st5" d="M13.68,77.38c0.25-0.04,0.54-0.06,0.86-0.06c0.58,0,0.99,0.13,1.27,0.39c0.28,0.25,0.44,0.62,0.44,1.12
		c0,0.51-0.16,0.93-0.45,1.22c-0.29,0.29-0.77,0.45-1.38,0.45c-0.29,0-0.53-0.01-0.73-0.04V77.38z M14.08,80.15
		c0.1,0.02,0.25,0.02,0.41,0.02c0.86,0,1.33-0.48,1.33-1.33c0-0.74-0.41-1.21-1.27-1.21c-0.21,0-0.37,0.02-0.47,0.04V80.15z"/>
	<path class="st5" d="M17.17,77.34v3.13h-0.4v-3.13H17.17z"/>
	<path class="st5" d="M17.88,80.47v-3.13h0.44l1,1.58c0.23,0.37,0.41,0.7,0.56,1.02l0.01,0c-0.04-0.42-0.05-0.8-0.05-1.29v-1.31
		h0.38v3.13h-0.41l-0.99-1.59c-0.22-0.35-0.43-0.71-0.58-1.04l-0.01,0c0.02,0.39,0.03,0.77,0.03,1.29v1.34H17.88z"/>
	<path class="st5" d="M21.43,79.49l-0.32,0.98h-0.42l1.06-3.13h0.49l1.07,3.13h-0.43l-0.33-0.98H21.43z M22.46,79.17l-0.31-0.9
		c-0.07-0.21-0.12-0.39-0.16-0.57h-0.01c-0.05,0.19-0.1,0.38-0.16,0.57l-0.31,0.9H22.46z"/>
	<path class="st5" d="M24.17,77.34v1.31h1.51v-1.31h0.41v3.13h-0.41V79h-1.51v1.47h-0.4v-3.13H24.17z"/>
	<path class="st5" d="M27.78,77.38c0.2-0.04,0.5-0.06,0.77-0.06c0.43,0,0.71,0.08,0.9,0.25c0.16,0.14,0.25,0.35,0.25,0.59
		c0,0.41-0.26,0.69-0.59,0.8v0.01c0.24,0.08,0.39,0.31,0.46,0.63c0.1,0.44,0.18,0.74,0.24,0.86h-0.42
		c-0.05-0.09-0.12-0.36-0.21-0.75c-0.09-0.43-0.26-0.59-0.63-0.61h-0.38v1.35h-0.4V77.38z M28.18,78.81h0.41
		c0.43,0,0.71-0.24,0.71-0.59c0-0.4-0.29-0.58-0.72-0.58c-0.19,0-0.33,0.02-0.4,0.04V78.81z"/>
	<path class="st5" d="M31.89,79h-1.21v1.13h1.35v0.34h-1.76v-3.13h1.69v0.34h-1.28v0.99h1.21V79z"/>
	<path class="st5" d="M34.93,80.33c-0.18,0.07-0.54,0.17-0.96,0.17c-0.47,0-0.86-0.12-1.17-0.41c-0.27-0.26-0.44-0.68-0.44-1.17
		c0-0.93,0.65-1.61,1.69-1.61c0.36,0,0.65,0.08,0.78,0.14l-0.1,0.33c-0.17-0.07-0.38-0.13-0.69-0.13c-0.76,0-1.26,0.47-1.26,1.26
		c0,0.79,0.48,1.26,1.21,1.26c0.26,0,0.45-0.04,0.54-0.08v-0.93H33.9v-0.32h1.03V80.33z"/>
	<path class="st5" d="M35.95,77.34v3.13h-0.4v-3.13H35.95z"/>
	<path class="st5" d="M39.33,78.87c0,1.08-0.65,1.65-1.45,1.65c-0.83,0-1.41-0.64-1.41-1.59c0-0.99,0.62-1.64,1.45-1.64
		C38.78,77.29,39.33,77.95,39.33,78.87z M36.91,78.92c0,0.67,0.36,1.27,1,1.27c0.64,0,1-0.59,1-1.3c0-0.62-0.32-1.27-1-1.27
		C37.24,77.62,36.91,78.24,36.91,78.92z"/>
	<path class="st5" d="M39.86,80.47v-3.13h0.44l1,1.58c0.23,0.37,0.41,0.7,0.56,1.02l0.01,0c-0.04-0.42-0.05-0.8-0.05-1.29v-1.31
		h0.38v3.13h-0.41l-0.99-1.59c-0.22-0.35-0.43-0.71-0.58-1.04l-0.01,0c0.02,0.39,0.03,0.77,0.03,1.29v1.34H39.86z"/>
	<path class="st5" d="M43.89,77.38c0.25-0.04,0.54-0.06,0.86-0.06c0.58,0,0.99,0.13,1.27,0.39c0.28,0.25,0.44,0.62,0.44,1.12
		c0,0.51-0.16,0.93-0.45,1.22c-0.29,0.29-0.77,0.45-1.38,0.45c-0.29,0-0.53-0.01-0.73-0.04V77.38z M44.29,80.15
		c0.1,0.02,0.25,0.02,0.41,0.02c0.86,0,1.33-0.48,1.33-1.33c0-0.74-0.41-1.21-1.27-1.21c-0.21,0-0.37,0.02-0.47,0.04V80.15z"/>
	<path class="st5" d="M48.6,79h-1.21v1.13h1.35v0.34h-1.76v-3.13h1.69v0.34h-1.28v0.99h1.21V79z"/>
	<path class="st5" d="M49.99,80.47l-1.02-3.13h0.44l0.49,1.54c0.13,0.42,0.25,0.8,0.33,1.17h0.01c0.09-0.36,0.22-0.76,0.36-1.17
		l0.53-1.54h0.43l-1.12,3.13H49.99z"/>
	<path class="st5" d="M53.51,79H52.3v1.13h1.35v0.34h-1.76v-3.13h1.69v0.34H52.3v0.99h1.22V79z"/>
	<path class="st5" d="M54.18,77.34h0.4v2.79h1.34v0.34h-1.74V77.34z"/>
	<path class="st5" d="M58.86,78.87c0,1.08-0.65,1.65-1.45,1.65c-0.83,0-1.41-0.64-1.41-1.59c0-0.99,0.62-1.64,1.45-1.64
		C58.3,77.29,58.86,77.95,58.86,78.87z M56.43,78.92c0,0.67,0.36,1.27,1,1.27c0.64,0,1-0.59,1-1.3c0-0.62-0.32-1.27-1-1.27
		C56.76,77.62,56.43,78.24,56.43,78.92z"/>
	<path class="st5" d="M59.38,77.38c0.2-0.03,0.45-0.06,0.77-0.06c0.4,0,0.69,0.09,0.88,0.26c0.17,0.15,0.27,0.38,0.27,0.65
		c0,0.28-0.08,0.5-0.24,0.67c-0.21,0.23-0.56,0.34-0.96,0.34c-0.12,0-0.23,0-0.33-0.03v1.25h-0.4V77.38z M59.78,78.89
		c0.09,0.02,0.2,0.03,0.33,0.03c0.49,0,0.78-0.24,0.78-0.67c0-0.41-0.29-0.61-0.74-0.61c-0.18,0-0.31,0.01-0.38,0.03V78.89z"/>
	<path class="st5" d="M64.43,79.1c-0.02-0.44-0.05-0.96-0.05-1.35h-0.01c-0.11,0.37-0.24,0.76-0.39,1.19l-0.55,1.52h-0.31
		l-0.51-1.49c-0.15-0.44-0.27-0.84-0.36-1.21h-0.01c-0.01,0.39-0.03,0.91-0.06,1.38l-0.08,1.34h-0.39l0.22-3.13h0.51l0.53,1.51
		c0.13,0.38,0.24,0.73,0.32,1.05h0.01c0.08-0.32,0.19-0.66,0.33-1.05l0.56-1.51h0.51l0.19,3.13h-0.39L64.43,79.1z"/>
	<path class="st5" d="M67.14,79h-1.22v1.13h1.35v0.34h-1.76v-3.13h1.69v0.34h-1.29v0.99h1.22V79z"/>
	<path class="st5" d="M67.8,80.47v-3.13h0.44l1,1.58c0.23,0.37,0.41,0.7,0.56,1.02l0.01,0c-0.04-0.42-0.05-0.8-0.05-1.29v-1.31h0.38
		v3.13h-0.41l-0.99-1.59c-0.22-0.35-0.43-0.71-0.58-1.04l-0.01,0c0.02,0.39,0.03,0.77,0.03,1.29v1.34H67.8z"/>
	<path class="st5" d="M71.45,77.69H70.5v-0.34h2.31v0.34h-0.96v2.78h-0.41V77.69z"/>
	<path class="st5" d="M74.65,79.49l-0.33,0.98h-0.42l1.06-3.13h0.49l1.07,3.13h-0.43l-0.33-0.98H74.65z M75.68,79.17l-0.31-0.9
		c-0.07-0.21-0.12-0.39-0.16-0.57H75.2c-0.05,0.19-0.1,0.38-0.16,0.57l-0.31,0.9H75.68z"/>
	<path class="st5" d="M77.26,77.34v1.85c0,0.7,0.31,1,0.73,1c0.46,0,0.76-0.31,0.76-1v-1.85h0.41v1.82c0,0.96-0.51,1.35-1.18,1.35
		c-0.64,0-1.12-0.37-1.12-1.34v-1.84H77.26z"/>
	<path class="st5" d="M80.45,77.69H79.5v-0.34h2.32v0.34h-0.96v2.78h-0.41V77.69z"/>
	<path class="st5" d="M82.57,77.34v1.31h1.51v-1.31h0.41v3.13h-0.41V79h-1.51v1.47h-0.4v-3.13H82.57z"/>
	<path class="st5" d="M87.86,78.87c0,1.08-0.65,1.65-1.45,1.65c-0.83,0-1.41-0.64-1.41-1.59c0-0.99,0.62-1.64,1.45-1.64
		C87.31,77.29,87.86,77.95,87.86,78.87z M85.43,78.92c0,0.67,0.36,1.27,1,1.27c0.64,0,1-0.59,1-1.3c0-0.62-0.32-1.27-1-1.27
		C85.77,77.62,85.43,78.24,85.43,78.92z"/>
	<path class="st5" d="M88.38,77.38c0.2-0.04,0.5-0.06,0.77-0.06c0.43,0,0.71,0.08,0.91,0.25c0.16,0.14,0.25,0.35,0.25,0.59
		c0,0.41-0.26,0.69-0.59,0.8v0.01c0.24,0.08,0.38,0.31,0.46,0.63c0.1,0.44,0.18,0.74,0.24,0.86H90c-0.05-0.09-0.12-0.36-0.21-0.75
		c-0.09-0.43-0.26-0.59-0.63-0.61h-0.38v1.35h-0.4V77.38z M88.79,78.81h0.41c0.43,0,0.71-0.24,0.71-0.59c0-0.4-0.29-0.58-0.72-0.58
		c-0.2,0-0.33,0.02-0.4,0.04V78.81z"/>
	<path class="st5" d="M91.28,77.34v3.13h-0.4v-3.13H91.28z"/>
	<path class="st5" d="M92.58,77.69h-0.95v-0.34h2.32v0.34h-0.96v2.78h-0.41V77.69z"/>
	<path class="st5" d="M95.12,80.47v-1.33l-0.99-1.8h0.46l0.44,0.86c0.12,0.24,0.21,0.43,0.31,0.64h0.01
		c0.09-0.2,0.19-0.41,0.32-0.64l0.45-0.86h0.46l-1.05,1.79v1.33H95.12z"/>
</g>
</svg>
